<mxfile host="app.diagrams.net" modified="2023-06-28T22:03:55.437Z" agent="Mozilla/5.0 (Macintosh; Intel Mac OS X 10_15_7) AppleWebKit/537.36 (KHTML, like Gecko) Chrome/114.0.0.0 Safari/537.36" version="21.5.1" etag="QpnAdASb5mVIswJ2DiBg" type="device">
  <diagram id="UOFQS9CRebYMNbXi2qn_" name="Page-1">
    <mxGraphModel dx="2107" dy="648" grid="1" gridSize="10" guides="1" tooltips="1" connect="1" arrows="1" fold="1" page="1" pageScale="1" pageWidth="850" pageHeight="1100" math="0" shadow="0">
      <root>
        <mxCell id="0" />
        <mxCell id="1" parent="0" />
        <mxCell id="4" value="" style="group" parent="1" vertex="1" connectable="0">
          <mxGeometry x="330" y="30" width="190" height="110" as="geometry" />
        </mxCell>
        <mxCell id="2" value="" style="ellipse;whiteSpace=wrap;html=1;" parent="4" vertex="1">
          <mxGeometry width="190" height="110" as="geometry" />
        </mxCell>
        <mxCell id="3" value="START" style="text;html=1;strokeColor=none;fillColor=none;align=center;verticalAlign=middle;whiteSpace=wrap;rounded=0;" parent="4" vertex="1">
          <mxGeometry x="65" y="40" width="60" height="30" as="geometry" />
        </mxCell>
        <mxCell id="6" value="" style="endArrow=classic;html=1;exitX=0.5;exitY=1;exitDx=0;exitDy=0;" parent="1" source="2" edge="1">
          <mxGeometry width="50" height="50" relative="1" as="geometry">
            <mxPoint x="770" y="350" as="sourcePoint" />
            <mxPoint x="425" y="180" as="targetPoint" />
          </mxGeometry>
        </mxCell>
        <mxCell id="14" value="" style="group" parent="1" vertex="1" connectable="0">
          <mxGeometry x="260" y="180" width="330" height="190" as="geometry" />
        </mxCell>
        <mxCell id="12" value="sprawdzenie paneli solarnych, baterii, kontrolera ładowania, &lt;br&gt;przetwornika napięcia, układu zarządzania zasilaniem" style="html=1;" parent="14" vertex="1">
          <mxGeometry width="330" height="110" as="geometry" />
        </mxCell>
        <mxCell id="13" value="&lt;span style=&quot;color: rgb(240, 240, 240); font-family: Helvetica; font-style: normal; font-variant-ligatures: normal; font-variant-caps: normal; font-weight: 400; letter-spacing: normal; orphans: 2; text-indent: 0px; text-transform: none; widows: 2; word-spacing: 0px; -webkit-text-stroke-width: 0px; background-color: rgb(42, 37, 47); text-decoration-thickness: initial; text-decoration-style: initial; text-decoration-color: initial; float: none; display: inline !important;&quot;&gt;&lt;font style=&quot;font-size: 20px;&quot;&gt;Inicjalizacja modułu zasilania&lt;/font&gt;&lt;/span&gt;" style="text;whiteSpace=wrap;html=1;align=center;" parent="14" vertex="1">
          <mxGeometry y="0.0036538461538458593" width="330" height="36.53846153846154" as="geometry" />
        </mxCell>
        <mxCell id="15" value="" style="group" parent="1" vertex="1" connectable="0">
          <mxGeometry x="260" y="350" width="330" height="120" as="geometry" />
        </mxCell>
        <mxCell id="16" value="inicjalizacja czujników temperatury, wilgotności, &lt;br&gt;ciśnienia atmosferycznego,opadów, wiatru, &lt;br&gt;promieniowania słonecznego, jakości powietrza" style="html=1;" parent="15" vertex="1">
          <mxGeometry width="330" height="110" as="geometry" />
        </mxCell>
        <mxCell id="17" value="&lt;span style=&quot;color: rgb(240, 240, 240); font-family: Helvetica; font-style: normal; font-variant-ligatures: normal; font-variant-caps: normal; font-weight: 400; letter-spacing: normal; orphans: 2; text-indent: 0px; text-transform: none; widows: 2; word-spacing: 0px; -webkit-text-stroke-width: 0px; background-color: rgb(42, 37, 47); text-decoration-thickness: initial; text-decoration-style: initial; text-decoration-color: initial; float: none; display: inline !important;&quot;&gt;&lt;font style=&quot;font-size: 20px;&quot;&gt;Inicjalizacja modułu pomiarów&lt;/font&gt;&lt;/span&gt;" style="text;whiteSpace=wrap;html=1;align=center;" parent="15" vertex="1">
          <mxGeometry width="330" height="22.05333333333333" as="geometry" />
        </mxCell>
        <mxCell id="18" value="" style="endArrow=classic;html=1;fontSize=25;exitX=0.5;exitY=1;exitDx=0;exitDy=0;" parent="1" source="12" edge="1">
          <mxGeometry width="50" height="50" relative="1" as="geometry">
            <mxPoint x="120" y="530" as="sourcePoint" />
            <mxPoint x="425" y="350" as="targetPoint" />
          </mxGeometry>
        </mxCell>
        <mxCell id="19" value="" style="group" parent="1" vertex="1" connectable="0">
          <mxGeometry x="260" y="530" width="330" height="180" as="geometry" />
        </mxCell>
        <mxCell id="20" value="inicjalizacja wyświetlacza, klawiatury, przycisków funkcyjnych, &lt;br&gt;głośnika, modułu graficznego, &lt;br&gt;sterownika interfejsu użytkownika, diod LED" style="html=1;" parent="19" vertex="1">
          <mxGeometry width="330" height="180" as="geometry" />
        </mxCell>
        <mxCell id="21" value="&lt;span style=&quot;color: rgb(240, 240, 240); font-family: Helvetica; font-style: normal; font-variant-ligatures: normal; font-variant-caps: normal; font-weight: 400; letter-spacing: normal; orphans: 2; text-indent: 0px; text-transform: none; widows: 2; word-spacing: 0px; -webkit-text-stroke-width: 0px; background-color: rgb(42, 37, 47); text-decoration-thickness: initial; text-decoration-style: initial; text-decoration-color: initial; float: none; display: inline !important;&quot;&gt;&lt;font style=&quot;font-size: 20px;&quot;&gt;Inicjalizacja modułu interfejsu użytkownika&lt;/font&gt;&lt;/span&gt;" style="text;whiteSpace=wrap;html=1;align=center;" parent="19" vertex="1">
          <mxGeometry width="330" height="34.61538461538461" as="geometry" />
        </mxCell>
        <mxCell id="22" style="edgeStyle=none;html=1;exitX=0.5;exitY=1;exitDx=0;exitDy=0;fontSize=25;" parent="1" source="16" edge="1">
          <mxGeometry relative="1" as="geometry">
            <mxPoint x="425" y="530" as="targetPoint" />
          </mxGeometry>
        </mxCell>
        <mxCell id="23" value="" style="group" parent="1" vertex="1" connectable="0">
          <mxGeometry x="260" y="940" width="330" height="200" as="geometry" />
        </mxCell>
        <mxCell id="24" value="sprawdzenie procesora, pamięci RAM, ROM, &lt;br&gt;magistrali danych" style="html=1;" parent="23" vertex="1">
          <mxGeometry width="330" height="170" as="geometry" />
        </mxCell>
        <mxCell id="25" value="&lt;span style=&quot;color: rgb(240, 240, 240); font-family: Helvetica; font-style: normal; font-variant-ligatures: normal; font-variant-caps: normal; font-weight: 400; letter-spacing: normal; orphans: 2; text-indent: 0px; text-transform: none; widows: 2; word-spacing: 0px; -webkit-text-stroke-width: 0px; background-color: rgb(42, 37, 47); text-decoration-thickness: initial; text-decoration-style: initial; text-decoration-color: initial; float: none; display: inline !important;&quot;&gt;&lt;font style=&quot;font-size: 20px;&quot;&gt;Inicjalizacja modułu jednostki głównej&lt;/font&gt;&lt;/span&gt;" style="text;whiteSpace=wrap;html=1;align=center;" parent="23" vertex="1">
          <mxGeometry y="-0.003076923076921645" width="330" height="38.46153846153847" as="geometry" />
        </mxCell>
        <mxCell id="26" style="edgeStyle=none;html=1;exitX=0.5;exitY=1;exitDx=0;exitDy=0;entryX=0.5;entryY=0;entryDx=0;entryDy=0;fontSize=25;" parent="1" source="20" target="24" edge="1">
          <mxGeometry relative="1" as="geometry" />
        </mxCell>
        <mxCell id="29" value="" style="group" parent="1" vertex="1" connectable="0">
          <mxGeometry x="260" y="1180" width="330" height="200" as="geometry" />
        </mxCell>
        <mxCell id="30" value="sprawdzenie serwera, API, &lt;br&gt;systemu zarządzania bazą danych" style="html=1;" parent="29" vertex="1">
          <mxGeometry width="330" height="170" as="geometry" />
        </mxCell>
        <mxCell id="31" value="&lt;span style=&quot;color: rgb(240, 240, 240); font-family: Helvetica; font-style: normal; font-variant-ligatures: normal; font-variant-caps: normal; font-weight: 400; letter-spacing: normal; orphans: 2; text-indent: 0px; text-transform: none; widows: 2; word-spacing: 0px; -webkit-text-stroke-width: 0px; background-color: rgb(42, 37, 47); text-decoration-thickness: initial; text-decoration-style: initial; text-decoration-color: initial; float: none; display: inline !important;&quot;&gt;&lt;font style=&quot;font-size: 20px;&quot;&gt;Inicjalizacja modułu jednostki głównej&lt;/font&gt;&lt;/span&gt;" style="text;whiteSpace=wrap;html=1;align=center;" parent="29" vertex="1">
          <mxGeometry y="-0.003076923076921645" width="330" height="38.46153846153847" as="geometry" />
        </mxCell>
        <mxCell id="32" style="edgeStyle=none;html=1;exitX=0.5;exitY=1;exitDx=0;exitDy=0;fontSize=20;" parent="1" source="24" target="31" edge="1">
          <mxGeometry relative="1" as="geometry" />
        </mxCell>
        <mxCell id="35" value="" style="group" parent="1" vertex="1" connectable="0">
          <mxGeometry x="280" y="1440" width="290" height="170" as="geometry" />
        </mxCell>
        <mxCell id="33" value="" style="rounded=0;whiteSpace=wrap;html=1;fontSize=20;" parent="35" vertex="1">
          <mxGeometry width="290" height="170" as="geometry" />
        </mxCell>
        <mxCell id="34" value="Odczytanie danych z czujników z modułu pomiarów" style="text;html=1;strokeColor=none;fillColor=none;align=center;verticalAlign=middle;whiteSpace=wrap;rounded=0;fontSize=20;" parent="35" vertex="1">
          <mxGeometry x="10" y="10" width="270" height="150" as="geometry" />
        </mxCell>
        <mxCell id="36" style="edgeStyle=none;html=1;exitX=0.5;exitY=1;exitDx=0;exitDy=0;entryX=0.5;entryY=0;entryDx=0;entryDy=0;fontSize=20;" parent="1" source="30" target="33" edge="1">
          <mxGeometry relative="1" as="geometry" />
        </mxCell>
        <mxCell id="37" value="" style="group" parent="1" vertex="1" connectable="0">
          <mxGeometry x="280" y="1680" width="290" height="170" as="geometry" />
        </mxCell>
        <mxCell id="38" value="" style="rounded=0;whiteSpace=wrap;html=1;fontSize=20;" parent="37" vertex="1">
          <mxGeometry width="290" height="170" as="geometry" />
        </mxCell>
        <mxCell id="39" value="Przetwarzanie danych w jednostce głównej" style="text;html=1;strokeColor=none;fillColor=none;align=center;verticalAlign=middle;whiteSpace=wrap;rounded=0;fontSize=20;" parent="37" vertex="1">
          <mxGeometry x="10" y="10" width="270" height="150" as="geometry" />
        </mxCell>
        <mxCell id="40" style="edgeStyle=none;html=1;exitX=0.5;exitY=1;exitDx=0;exitDy=0;entryX=0.5;entryY=0;entryDx=0;entryDy=0;fontSize=20;" parent="1" source="33" target="38" edge="1">
          <mxGeometry relative="1" as="geometry" />
        </mxCell>
        <mxCell id="41" value="" style="group" parent="1" vertex="1" connectable="0">
          <mxGeometry x="280" y="1920" width="290" height="170" as="geometry" />
        </mxCell>
        <mxCell id="42" value="" style="rounded=0;whiteSpace=wrap;html=1;fontSize=20;" parent="41" vertex="1">
          <mxGeometry width="290" height="170" as="geometry" />
        </mxCell>
        <mxCell id="43" value="Zapisanie danych w bazie danych" style="text;html=1;strokeColor=none;fillColor=none;align=center;verticalAlign=middle;whiteSpace=wrap;rounded=0;fontSize=20;" parent="41" vertex="1">
          <mxGeometry x="10" y="10" width="270" height="150" as="geometry" />
        </mxCell>
        <mxCell id="44" style="edgeStyle=none;html=1;exitX=0.5;exitY=1;exitDx=0;exitDy=0;entryX=0.5;entryY=0;entryDx=0;entryDy=0;fontSize=20;" parent="1" source="39" target="42" edge="1">
          <mxGeometry relative="1" as="geometry" />
        </mxCell>
        <mxCell id="45" value="" style="group" parent="1" vertex="1" connectable="0">
          <mxGeometry x="280" y="2180" width="290" height="170" as="geometry" />
        </mxCell>
        <mxCell id="46" value="" style="rounded=0;whiteSpace=wrap;html=1;fontSize=20;" parent="45" vertex="1">
          <mxGeometry width="290" height="170" as="geometry" />
        </mxCell>
        <mxCell id="47" value="Wyświetlenie danych na wyświetlaczu" style="text;html=1;strokeColor=none;fillColor=none;align=center;verticalAlign=middle;whiteSpace=wrap;rounded=0;fontSize=20;" parent="45" vertex="1">
          <mxGeometry x="10" y="10" width="270" height="150" as="geometry" />
        </mxCell>
        <mxCell id="48" style="edgeStyle=none;html=1;exitX=0.5;exitY=1;exitDx=0;exitDy=0;entryX=0.5;entryY=0;entryDx=0;entryDy=0;fontSize=20;" parent="1" source="42" target="46" edge="1">
          <mxGeometry relative="1" as="geometry" />
        </mxCell>
        <mxCell id="51" value="" style="group" parent="1" vertex="1" connectable="0">
          <mxGeometry x="280" y="2460" width="290" height="140" as="geometry" />
        </mxCell>
        <mxCell id="49" value="" style="rhombus;whiteSpace=wrap;html=1;fontSize=20;" parent="51" vertex="1">
          <mxGeometry width="290" height="140" as="geometry" />
        </mxCell>
        <mxCell id="50" value="&lt;font style=&quot;font-size: 15px;&quot;&gt;aktywowany przycisk funkcyjny&lt;/font&gt;" style="text;html=1;strokeColor=none;fillColor=none;align=center;verticalAlign=middle;whiteSpace=wrap;rounded=0;fontSize=20;" parent="51" vertex="1">
          <mxGeometry y="5" width="290" height="130" as="geometry" />
        </mxCell>
        <mxCell id="52" style="edgeStyle=none;html=1;exitX=0.5;exitY=1;exitDx=0;exitDy=0;fontSize=15;entryX=0.5;entryY=0;entryDx=0;entryDy=0;" parent="1" source="46" target="50" edge="1">
          <mxGeometry relative="1" as="geometry">
            <mxPoint x="425.3333333333335" y="2450" as="targetPoint" />
          </mxGeometry>
        </mxCell>
        <mxCell id="53" value="" style="endArrow=classic;html=1;fontSize=15;exitX=1;exitY=0.5;exitDx=0;exitDy=0;entryX=1;entryY=0;entryDx=0;entryDy=0;" parent="1" source="50" target="66" edge="1">
          <mxGeometry relative="1" as="geometry">
            <mxPoint x="620" y="2530" as="sourcePoint" />
            <mxPoint x="680" y="2640" as="targetPoint" />
            <Array as="points">
              <mxPoint x="680" y="2530" />
            </Array>
          </mxGeometry>
        </mxCell>
        <mxCell id="54" value="NIE" style="edgeLabel;resizable=0;html=1;align=center;verticalAlign=middle;fontSize=15;" parent="53" connectable="0" vertex="1">
          <mxGeometry relative="1" as="geometry" />
        </mxCell>
        <mxCell id="57" value="" style="endArrow=classic;html=1;fontSize=15;exitX=0;exitY=0.5;exitDx=0;exitDy=0;entryX=0.5;entryY=0;entryDx=0;entryDy=0;" parent="1" source="50" target="62" edge="1">
          <mxGeometry relative="1" as="geometry">
            <mxPoint x="120" y="2500" as="sourcePoint" />
            <mxPoint x="200" y="2640" as="targetPoint" />
            <Array as="points">
              <mxPoint x="200" y="2530" />
            </Array>
          </mxGeometry>
        </mxCell>
        <mxCell id="58" value="TAK" style="edgeLabel;resizable=0;html=1;align=center;verticalAlign=middle;fontSize=15;" parent="57" connectable="0" vertex="1">
          <mxGeometry relative="1" as="geometry" />
        </mxCell>
        <mxCell id="61" value="" style="group" parent="1" vertex="1" connectable="0">
          <mxGeometry x="90" y="2660" width="230" height="125" as="geometry" />
        </mxCell>
        <mxCell id="62" value="" style="rounded=0;whiteSpace=wrap;html=1;fontSize=20;" parent="61" vertex="1">
          <mxGeometry width="230" height="125.00000000000001" as="geometry" />
        </mxCell>
        <mxCell id="63" value="&lt;font style=&quot;font-size: 20px;&quot;&gt;Wykonywanie funkcji zdefiniowanych dla przycisku&lt;/font&gt;" style="text;html=1;strokeColor=none;fillColor=none;align=center;verticalAlign=middle;whiteSpace=wrap;rounded=0;fontSize=20;" parent="61" vertex="1">
          <mxGeometry x="7.931034482758621" y="7.352941176470589" width="214.13793103448276" height="110.29411764705883" as="geometry" />
        </mxCell>
        <mxCell id="65" value="" style="group" parent="1" vertex="1" connectable="0">
          <mxGeometry x="310" y="2910" width="230" height="125" as="geometry" />
        </mxCell>
        <mxCell id="66" value="" style="rounded=0;whiteSpace=wrap;html=1;fontSize=20;" parent="65" vertex="1">
          <mxGeometry width="230" height="125.00000000000001" as="geometry" />
        </mxCell>
        <mxCell id="67" value="&lt;font style=&quot;font-size: 20px;&quot;&gt;Sprawdzenie zasobów energetycznych i zarządzanie zasilaniem&lt;/font&gt;" style="text;html=1;strokeColor=none;fillColor=none;align=center;verticalAlign=middle;whiteSpace=wrap;rounded=0;fontSize=20;" parent="65" vertex="1">
          <mxGeometry x="7.931034482758621" y="7.352941176470589" width="214.13793103448276" height="110.29411764705883" as="geometry" />
        </mxCell>
        <mxCell id="68" value="" style="endArrow=classic;html=1;fontSize=20;exitX=0.5;exitY=1;exitDx=0;exitDy=0;entryX=0;entryY=0;entryDx=0;entryDy=0;" parent="1" source="63" target="66" edge="1">
          <mxGeometry width="50" height="50" relative="1" as="geometry">
            <mxPoint x="120" y="2880" as="sourcePoint" />
            <mxPoint x="170" y="2830" as="targetPoint" />
          </mxGeometry>
        </mxCell>
        <mxCell id="70" value="" style="group" parent="1" vertex="1" connectable="0">
          <mxGeometry x="280" y="3120" width="290" height="140" as="geometry" />
        </mxCell>
        <mxCell id="71" value="" style="rhombus;whiteSpace=wrap;html=1;fontSize=20;" parent="70" vertex="1">
          <mxGeometry width="290" height="140" as="geometry" />
        </mxCell>
        <mxCell id="72" value="&lt;span style=&quot;font-size: 15px;&quot;&gt;Zasoby energetyczne wystarczające&lt;/span&gt;" style="text;html=1;strokeColor=none;fillColor=none;align=center;verticalAlign=middle;whiteSpace=wrap;rounded=0;fontSize=20;" parent="70" vertex="1">
          <mxGeometry y="5" width="290" height="130" as="geometry" />
        </mxCell>
        <mxCell id="73" style="edgeStyle=none;html=1;exitX=0.5;exitY=1;exitDx=0;exitDy=0;entryX=0.5;entryY=0;entryDx=0;entryDy=0;fontSize=20;" parent="1" source="66" target="72" edge="1">
          <mxGeometry relative="1" as="geometry" />
        </mxCell>
        <mxCell id="74" value="" style="endArrow=classic;html=1;fontSize=20;exitX=0;exitY=0.5;exitDx=0;exitDy=0;" parent="1" source="72" target="83" edge="1">
          <mxGeometry relative="1" as="geometry">
            <mxPoint x="170" y="3150" as="sourcePoint" />
            <mxPoint x="130" y="3189.9999999999995" as="targetPoint" />
          </mxGeometry>
        </mxCell>
        <mxCell id="75" value="NIE" style="edgeLabel;resizable=0;html=1;align=center;verticalAlign=middle;fontSize=20;" parent="74" connectable="0" vertex="1">
          <mxGeometry relative="1" as="geometry" />
        </mxCell>
        <mxCell id="76" value="" style="endArrow=classic;html=1;fontSize=20;exitX=1;exitY=0.5;exitDx=0;exitDy=0;entryX=1.001;entryY=0.478;entryDx=0;entryDy=0;entryPerimeter=0;" parent="1" source="72" target="33" edge="1">
          <mxGeometry relative="1" as="geometry">
            <mxPoint x="680" y="3189.71" as="sourcePoint" />
            <mxPoint x="760" y="1440" as="targetPoint" />
            <Array as="points">
              <mxPoint x="760" y="3190" />
              <mxPoint x="760" y="1520" />
            </Array>
          </mxGeometry>
        </mxCell>
        <mxCell id="77" value="TAK" style="edgeLabel;resizable=0;html=1;align=center;verticalAlign=middle;fontSize=20;" parent="76" connectable="0" vertex="1">
          <mxGeometry relative="1" as="geometry" />
        </mxCell>
        <mxCell id="82" value="" style="group" parent="1" vertex="1" connectable="0">
          <mxGeometry x="-110" y="3135" width="230" height="125" as="geometry" />
        </mxCell>
        <mxCell id="83" value="" style="rounded=0;whiteSpace=wrap;html=1;fontSize=20;" parent="82" vertex="1">
          <mxGeometry width="230" height="125.00000000000001" as="geometry" />
        </mxCell>
        <mxCell id="84" value="Wysłanie informacji o braku zasobów energetycznych" style="text;html=1;strokeColor=none;fillColor=none;align=center;verticalAlign=middle;whiteSpace=wrap;rounded=0;fontSize=20;" parent="82" vertex="1">
          <mxGeometry x="7.931034482758621" y="7.352941176470589" width="214.13793103448276" height="110.29411764705883" as="geometry" />
        </mxCell>
        <mxCell id="85" value="" style="endArrow=classic;html=1;fontSize=20;exitX=0.5;exitY=1;exitDx=0;exitDy=0;" parent="1" source="83" target="88" edge="1">
          <mxGeometry width="50" height="50" relative="1" as="geometry">
            <mxPoint x="10" y="3380" as="sourcePoint" />
            <mxPoint x="5" y="3350" as="targetPoint" />
          </mxGeometry>
        </mxCell>
        <mxCell id="87" value="" style="group" parent="1" vertex="1" connectable="0">
          <mxGeometry x="-110" y="3370" width="230" height="125" as="geometry" />
        </mxCell>
        <mxCell id="88" value="" style="rounded=0;whiteSpace=wrap;html=1;fontSize=20;" parent="87" vertex="1">
          <mxGeometry width="230" height="125.00000000000001" as="geometry" />
        </mxCell>
        <mxCell id="89" value="Wyłączenia modułów" style="text;html=1;strokeColor=none;fillColor=none;align=center;verticalAlign=middle;whiteSpace=wrap;rounded=0;fontSize=20;" parent="87" vertex="1">
          <mxGeometry x="7.931034482758621" y="7.352941176470589" width="214.13793103448276" height="110.29411764705883" as="geometry" />
        </mxCell>
        <mxCell id="91" value="" style="ellipse;whiteSpace=wrap;html=1;fontSize=20;" parent="1" vertex="1">
          <mxGeometry x="-55" y="3620" width="120" height="80" as="geometry" />
        </mxCell>
        <mxCell id="92" value="STOP" style="text;html=1;strokeColor=none;fillColor=none;align=center;verticalAlign=middle;whiteSpace=wrap;rounded=0;fontSize=20;" parent="1" vertex="1">
          <mxGeometry x="-25" y="3645" width="60" height="30" as="geometry" />
        </mxCell>
        <mxCell id="93" value="" style="endArrow=classic;html=1;fontSize=20;exitX=0.5;exitY=1;exitDx=0;exitDy=0;entryX=0.493;entryY=-0.034;entryDx=0;entryDy=0;entryPerimeter=0;" parent="1" source="88" target="91" edge="1">
          <mxGeometry width="50" height="50" relative="1" as="geometry">
            <mxPoint x="30" y="3570" as="sourcePoint" />
            <mxPoint x="80" y="3520" as="targetPoint" />
          </mxGeometry>
        </mxCell>
      </root>
    </mxGraphModel>
  </diagram>
</mxfile>
